<svg width="38" height="31" viewBox="0 0 38 31" fill="none" xmlns="http://www.w3.org/2000/svg">
<path d="M9.27458 30.24C7.48475 30.24 6.02034 29.88 4.88136 29.16C3.74237 28.44 2.80678 27.52 2.07458 26.4C1.17966 25.12 0.61017 23.72 0.366102 22.2C0.122034 20.68 0 19.44 0 18.48C0 14.56 1.01695 11 3.05085 7.80001C5.08475 4.60001 8.25763 2 12.5695 0L13.6678 2.16C11.1458 3.2 8.94915 4.84 7.07797 7.08C5.28814 9.32 4.39322 11.6 4.39322 13.92C4.39322 14.88 4.51525 15.72 4.75932 16.44C6.06102 15.4 7.5661 14.88 9.27458 14.88C11.3898 14.88 13.2203 15.56 14.7661 16.92C16.3119 18.28 17.0847 20.16 17.0847 22.56C17.0847 24.8 16.3119 26.64 14.7661 28.08C13.2203 29.52 11.3898 30.24 9.27458 30.24ZM30.0203 30.24C28.2305 30.24 26.7661 29.88 25.6271 29.16C24.4881 28.44 23.5525 27.52 22.8203 26.4C21.9254 25.12 21.3559 23.72 21.1119 22.2C20.8678 20.68 20.7458 19.44 20.7458 18.48C20.7458 14.56 21.7627 11 23.7966 7.80001C25.8305 4.60001 29.0034 2 33.3153 0L34.4136 2.16C31.8915 3.2 29.6949 4.84 27.8237 7.08C26.0339 9.32 25.139 11.6 25.139 13.92C25.139 14.88 25.261 15.72 25.5051 16.44C26.8068 15.4 28.3119 14.88 30.0203 14.88C32.1356 14.88 33.9661 15.56 35.5119 16.92C37.0576 18.28 37.8305 20.16 37.8305 22.56C37.8305 24.8 37.0576 26.64 35.5119 28.08C33.9661 29.52 32.1356 30.24 30.0203 30.24Z" fill="#473C38"/>
</svg>
