<svg width="130" height="78" viewBox="0 0 130 78" fill="none" xmlns="http://www.w3.org/2000/svg">
<path d="M65.0808 -2C42.9485 -2 25.0227 15.8998 25.0227 38C25.0227 60.1002 42.9485 78 65.0808 78C87.2131 78 105.139 60.1002 105.139 38C105.139 15.8998 87.2131 -2 65.0808 -2ZM65.0808 70C47.3748 70 33.0343 55.6804 33.0343 38C33.0343 20.3196 47.3748 6 65.0808 6C82.7869 6 97.1273 20.3196 97.1273 38C97.1273 55.6804 82.7869 70 65.0808 70Z" fill="#B2935B"/>
<path d="M19.4037 48.674C18.8903 49.2647 18.3388 49.6887 17.7473 49.944C17.1557 50.2024 16.4395 50.3322 15.6007 50.3322C14.4936 50.3322 13.62 50.098 12.9809 49.6318C12.3407 49.1655 11.9255 48.3691 11.7343 47.2436L11.2188 44.387C10.9706 42.9978 10.6705 41.9735 10.3188 41.3153C9.96594 40.6571 9.37859 40.328 8.55672 40.328H6.69748V46.9018C6.69748 47.6254 6.74924 48.1497 6.85383 48.4757C6.96052 48.7995 7.15595 49.0189 7.44118 49.1339C7.72851 49.2467 8.19544 49.3227 8.84406 49.3617V49.9313C7.81302 49.8754 6.37212 49.847 4.52133 49.847C2.48145 49.847 0.973987 49.8754 0 49.9313V49.3617C0.630662 49.3227 1.09441 49.2467 1.3902 49.1339C1.68599 49.0189 1.88565 48.7995 1.99023 48.4757C2.09376 48.1497 2.14657 47.6254 2.14657 46.9018V32.7288C2.14657 32.0031 2.09376 31.4788 1.99023 31.155C1.88565 30.8322 1.68599 30.6138 1.3902 30.501C1.09441 30.386 0.630662 30.309 0 30.2689V29.6993C0.973987 29.7562 2.42546 29.7837 4.35231 29.7837L7.52991 29.7541C7.91021 29.7351 8.34756 29.7246 8.84406 29.7246C11.4776 29.7246 13.4562 30.1539 14.7809 31.0115C16.1078 31.8702 16.7712 33.0991 16.7712 34.6993C16.7712 36.0527 16.2747 37.2436 15.2838 38.2731C14.2918 39.3005 12.6513 39.9472 10.361 40.214C12.0787 40.3659 13.358 40.7373 14.1978 41.328C15.0366 41.9187 15.5806 42.8048 15.8289 43.9862L16.4881 46.9313C16.6402 47.694 16.8155 48.2267 17.0163 48.5305C17.2159 48.8343 17.498 48.9862 17.8614 48.9862C18.0895 48.9693 18.2839 48.9134 18.4445 48.8174C18.6072 48.7225 18.7952 48.56 19.0065 48.3322L19.4037 48.674ZM8.47221 30.2689C7.95669 30.2689 7.57851 30.3364 7.33976 30.4714C7.10313 30.6043 6.93622 30.8417 6.84115 31.1845C6.74502 31.5284 6.69748 32.0432 6.69748 32.7288V39.7584H7.92711C9.49268 39.7584 10.566 39.3448 11.147 38.5178C11.7301 37.6887 12.0217 36.52 12.0217 35.0115C12.0217 33.4503 11.7438 32.271 11.1892 31.4714C10.6367 30.6697 9.73142 30.2689 8.47221 30.2689Z" fill="#1F2122"/>
<path d="M38.5517 30.2689C37.92 30.3649 37.4573 30.5284 37.1615 30.7584C36.8657 30.9862 36.665 31.348 36.5615 31.8428C36.4569 32.3385 36.4051 33.0706 36.4051 34.0411V41.6149C36.4051 44.3407 36.0132 46.3607 35.2304 47.674C34.7149 48.5126 33.9691 49.1655 32.9951 49.6318C32.0232 50.098 30.8316 50.3322 29.4203 50.3322C27.2061 50.3322 25.4885 49.8554 24.2694 48.9018C23.3905 48.1993 22.7989 47.309 22.4947 46.2309C22.1904 45.1539 22.0383 43.6434 22.0383 41.6993V32.7288C22.0383 32.0031 21.9844 31.4788 21.8777 31.155C21.7731 30.8322 21.5735 30.6139 21.2777 30.501C20.9819 30.386 20.5192 30.309 19.8917 30.2689V29.6993C20.8636 29.7563 22.351 29.7837 24.3539 29.7837C26.3399 29.7837 27.8569 29.7563 28.9048 29.6993V30.2689C28.2171 30.309 27.7153 30.386 27.4005 30.501C27.0878 30.6139 26.8734 30.8322 26.7582 31.155C26.6452 31.4788 26.5892 32.0031 26.5892 32.7288V43.501C26.5892 45.501 26.8787 46.9736 27.4597 47.9187C28.0428 48.8617 29.0675 49.3322 30.5359 49.3322C32.4458 49.3322 33.7906 48.6898 34.5713 47.4039C35.354 46.116 35.746 44.2921 35.746 41.9314V34.3828C35.746 33.2805 35.6783 32.462 35.5431 31.9271C35.41 31.3934 35.1523 31.0073 34.7699 30.771C34.3896 30.5326 33.7895 30.3649 32.9698 30.2689V29.6993C33.6934 29.7563 34.7234 29.7837 36.0586 29.7837C37.1288 29.7837 37.9601 29.7563 38.5517 29.6993V30.2689ZM32.112 23.2394C32.3793 23.0875 32.675 23.0115 32.9993 23.0115C33.3036 23.0115 33.5835 23.0875 33.8402 23.2394C34.099 23.3913 34.2945 23.6012 34.4276 23.8681C34.5427 24.0601 34.6008 24.2795 34.6008 24.5263C34.6008 24.8111 34.5142 25.0822 34.3431 25.3406C34.1709 25.597 33.9332 25.8111 33.629 25.982C33.3416 26.1339 33.0057 26.2721 32.6233 26.3955C32.243 26.52 31.8342 26.6297 31.3979 26.7246C31.2627 26.7647 30.8369 26.8797 30.1218 27.0706C29.4055 27.2594 28.59 27.5252 27.6752 27.8681L27.4766 27.5263C28.4083 26.7447 29.3527 25.8406 30.3077 24.8132C30.7271 24.3744 31.0609 24.0453 31.3091 23.8259C31.5563 23.6065 31.8246 23.4113 32.112 23.2394Z" fill="#1F2122"/>
<path d="M47.7091 29.328C48.7 29.328 49.4923 29.424 50.0838 29.6149C50.6754 29.8037 51.2754 30.0791 51.8839 30.4419C52.0952 30.5548 52.2811 30.6508 52.4417 30.7288C52.6044 30.8048 52.7438 30.8428 52.86 30.8428C53.0312 30.8428 53.1643 30.7436 53.2572 30.5432C53.3523 30.3407 53.4305 30.0221 53.4896 29.5854H54.1446C54.0516 30.8596 54.0051 33.0316 54.0051 36.1002H53.346C53.2699 35.0706 53.0354 34.0896 52.6445 33.155C52.2526 32.2215 51.6991 31.4651 50.9839 30.885C50.2677 30.3027 49.4331 30.0115 48.4781 30.0115C47.5453 30.0115 46.7879 30.2753 46.2048 30.8006C45.6217 31.3238 45.3301 32.0326 45.3301 32.9272C45.3301 33.5938 45.4738 34.175 45.7611 34.6698C46.0484 35.1656 46.4478 35.6181 46.9612 36.0284C47.4767 36.4398 48.269 36.9968 49.3401 37.6993L50.2529 38.328C51.379 39.0706 52.2663 39.7194 52.915 40.2732C53.5625 40.8248 54.0918 41.4672 54.5038 42.2014C54.9147 42.9356 55.1207 43.7879 55.1207 44.7584C55.1207 45.9799 54.8048 47.0052 54.1742 47.8343C53.5456 48.6613 52.6921 49.2848 51.6135 49.7035C50.5339 50.1223 49.337 50.3322 48.0218 50.3322C46.9538 50.3322 46.0664 50.2362 45.3597 50.0453C44.6551 49.8544 44.0075 49.597 43.4159 49.2731C42.9955 49.0063 42.6701 48.8723 42.4398 48.8723C42.2676 48.8723 42.1335 48.9736 42.0384 49.1761C41.9454 49.3765 41.8694 49.694 41.8102 50.1297H41.1553C41.2313 48.9314 41.2694 46.3607 41.2694 42.4166H41.9243C42.0595 44.5495 42.537 46.2774 43.3568 47.6023C44.1765 48.9272 45.4357 49.5896 47.1344 49.5896C48.1654 49.5896 49.0148 49.3143 49.6824 48.7626C50.35 48.2088 50.6839 47.4166 50.6839 46.3871C50.6839 45.3217 50.3395 44.4071 49.6528 43.6445C48.9651 42.8829 47.8781 42.0242 46.3907 41.0706C45.2467 40.328 44.3308 39.6814 43.6441 39.1297C42.9564 38.5759 42.3934 37.9229 41.9539 37.1719C41.5144 36.4187 41.2947 35.5464 41.2947 34.5559C41.2947 33.4145 41.5863 32.4483 42.1694 31.6571C42.7525 30.867 43.53 30.2816 44.5019 29.9018C45.4738 29.52 46.5428 29.328 47.7091 29.328Z" fill="#1F2122"/>
<path d="M75.1795 29.6993C75.0464 31.5084 74.9809 33.1276 74.9809 34.5558C74.9809 35.4503 75.0084 36.175 75.0654 36.7288H74.4063C73.9499 34.386 73.3256 32.7373 72.5343 31.7837C71.7421 30.8301 70.6593 30.3533 69.2849 30.3533H68.6257V46.674C68.6257 47.4735 68.706 48.0537 68.8666 48.4166C69.0293 48.7794 69.3166 49.0231 69.7286 49.1465C70.1395 49.271 70.7934 49.3427 71.6892 49.3617V49.9313C69.286 49.8754 67.4732 49.847 66.251 49.847C65.0477 49.847 63.3026 49.8754 61.0155 49.9313V49.3617C61.9113 49.3427 62.5631 49.271 62.9719 49.1465C63.3829 49.0231 63.6692 48.7794 63.8297 48.4166C63.9924 48.0537 64.0748 47.4735 64.0748 46.674V30.3533H63.4452C62.5293 30.3533 61.7518 30.5548 61.1127 30.9567C60.4725 31.3565 59.9232 32.0189 59.4647 32.944C59.0084 33.867 58.6175 35.1286 58.2943 36.7288H57.6351C57.6942 36.175 57.7238 35.4503 57.7238 34.5558C57.7238 33.1276 57.6562 31.5084 57.521 29.6993C59.2587 29.7562 62.2071 29.7837 66.3651 29.7837C70.5251 29.7837 73.464 29.7562 75.1795 29.6993Z" fill="#1F2122"/>
<path d="M86.2545 30.2689C85.6058 30.309 85.1389 30.386 84.8516 30.501C84.5664 30.6138 84.3709 30.8322 84.2642 31.155C84.1596 31.4788 84.1079 32.0031 84.1079 32.7288V46.9018C84.1079 47.6254 84.1596 48.1497 84.2642 48.4757C84.3709 48.7995 84.5664 49.0189 84.8516 49.1339C85.1389 49.2467 85.6058 49.3227 86.2545 49.3617V49.9313C85.2234 49.8754 83.7825 49.847 81.9317 49.847C79.8918 49.847 78.3844 49.8754 77.4104 49.9313V49.3617C78.0411 49.3227 78.5048 49.2467 78.8006 49.1339C79.0964 49.0189 79.296 48.7995 79.4006 48.4757C79.5042 48.1497 79.557 47.6254 79.557 46.9018V32.7288C79.557 32.0031 79.5042 31.4788 79.4006 31.155C79.296 30.8322 79.0964 30.6138 78.8006 30.501C78.5048 30.386 78.0411 30.309 77.4104 30.2689V29.6993C78.3844 29.7562 79.8918 29.7837 81.9317 29.7837C83.7825 29.7837 85.2234 29.7562 86.2545 29.6993V30.2689Z" fill="#1F2122"/>
<path d="M99.0764 29.2985C100.219 29.2985 101.191 29.4609 101.992 29.7837C102.795 30.1075 103.578 30.5643 104.341 31.155C104.553 31.3269 104.734 31.4124 104.887 31.4124C105.267 31.4124 105.514 30.8417 105.63 29.6993H106.289C106.213 30.9936 106.175 33.2985 106.175 36.6149H105.516C105.344 35.2056 105.115 34.1297 104.827 33.3871C104.542 32.6423 104.056 31.9936 103.37 31.4419C102.893 30.9841 102.34 30.636 101.709 30.3997C101.077 30.1613 100.42 30.0411 99.7356 30.0411C97.8088 30.0411 96.3774 30.9799 95.4425 32.8554C94.5065 34.732 94.0396 37.0706 94.0396 39.8723C94.0396 42.655 94.5255 44.9799 95.4974 46.847C96.4714 48.712 97.9229 49.6445 99.8497 49.6445C100.497 49.6445 101.141 49.5263 101.781 49.29C102.42 49.0516 102.96 48.7025 103.399 48.2436C104.103 47.712 104.593 47.0474 104.87 46.2478C105.149 45.4461 105.364 44.2731 105.516 42.7288H106.175C106.175 46.1782 106.213 48.5791 106.289 49.9314H105.63C105.573 49.3217 105.492 48.8881 105.385 48.6318C105.281 48.3734 105.133 48.2436 104.941 48.2436C104.789 48.2436 104.589 48.3217 104.341 48.4757C103.482 49.0833 102.661 49.5453 101.878 49.8596C101.097 50.174 100.154 50.3322 99.0469 50.3322C97.0239 50.3322 95.2534 49.9229 93.7354 49.1044C92.2195 48.2837 91.0416 47.0959 90.2028 45.5432C89.363 43.9904 88.9436 42.1381 88.9436 39.9862C88.9436 37.8913 89.3725 36.0347 90.2324 34.4166C91.0912 32.7964 92.2881 31.539 93.8241 30.6445C95.359 29.7478 97.1095 29.2985 99.0764 29.2985Z" fill="#1F2122"/>
<path d="M119.767 29.2985C121.789 29.2985 123.558 29.7077 125.074 30.5263C126.592 31.3449 127.771 32.5305 128.611 34.0833C129.45 35.636 129.87 37.4904 129.87 39.6445C129.87 41.7404 129.44 43.598 128.581 45.2183C127.721 46.8364 126.525 48.0938 124.99 48.9904C123.454 49.885 121.703 50.3322 119.737 50.3322C117.714 50.3322 115.944 49.9229 114.426 49.1044C112.91 48.2837 111.732 47.0959 110.893 45.5432C110.053 43.9904 109.634 42.1381 109.634 39.9862C109.634 37.8913 110.063 36.0347 110.923 34.4166C111.782 32.7964 112.979 31.539 114.515 30.6445C116.049 29.7478 117.8 29.2985 119.767 29.2985ZM119.653 29.8132C118.602 29.8132 117.675 30.2383 116.872 31.0875C116.072 31.9345 115.458 33.1202 115.03 34.6445C114.601 36.1666 114.388 37.9092 114.388 39.8723C114.388 41.8533 114.63 43.5959 115.115 45.1001C115.602 46.6054 116.26 47.7689 117.088 48.5896C117.918 49.4082 118.839 49.8174 119.851 49.8174C120.901 49.8174 121.827 49.3945 122.628 48.5474C123.43 47.6982 124.045 46.5115 124.474 44.9862C124.902 43.462 125.116 41.7193 125.116 39.7584C125.116 37.7753 124.872 36.0316 124.385 34.5263C123.901 33.0221 123.242 31.8596 122.412 31.0411C121.584 30.2225 120.664 29.8132 119.653 29.8132Z" fill="#1F2122"/>
</svg>
